<svg width="394" height="374" viewBox="0 0 394 374" fill="none" xmlns="http://www.w3.org/2000/svg">
<path d="M175.104 295H162.144C154.272 295 148.224 293.176 144 289.528C139.968 285.88 137.184 279.736 135.648 271.096L130.752 242.008H129.6C125.76 260.632 119.424 274.744 110.592 284.344C101.76 293.752 89.568 298.456 74.016 298.456C64.992 298.456 56.832 296.632 49.536 292.984C42.24 289.144 36 283.864 30.816 277.144C25.632 270.424 21.6 262.264 18.72 252.664C15.84 243.064 14.4 232.408 14.4 220.696C14.4 208.984 15.84 198.328 18.72 188.728C21.6 179.128 25.632 170.968 30.816 164.248C36 157.528 42.24 152.344 49.536 148.696C56.832 144.856 64.992 142.936 74.016 142.936C89.376 142.936 101.568 147.544 110.592 156.76C119.616 165.976 126.144 180.184 130.176 199.384H131.328L139.68 167.416L147.456 146.392H172.8L141.408 220.12L159.552 274.84H175.104V295ZM74.016 278.008C78.24 278.008 82.08 277.528 85.536 276.568C89.184 275.608 92.448 273.88 95.328 271.384C98.208 268.888 100.896 265.528 103.392 261.304C105.888 257.08 108.288 251.704 110.592 245.176L119.52 220.696L110.592 196.216C108.288 189.688 105.888 184.312 103.392 180.088C100.896 175.864 98.208 172.504 95.328 170.008C92.448 167.512 89.184 165.784 85.536 164.824C82.08 163.864 78.24 163.384 74.016 163.384C69.408 163.384 64.992 164.44 60.768 166.552C56.736 168.472 53.088 171.352 49.824 175.192C46.56 179.032 43.968 183.928 42.048 189.88C40.128 195.832 39.168 202.648 39.168 210.328V231.064C39.168 238.936 40.128 245.848 42.048 251.8C43.968 257.56 46.56 262.36 49.824 266.2C53.088 270.04 56.736 273.016 60.768 275.128C64.992 277.048 69.408 278.008 74.016 278.008Z" fill="url(#paint0_linear_2_6)"/>
<path d="M263.6 280.6C269.533 280.6 274.833 279.6 279.5 277.6C284.167 275.6 288.1 272.8 291.3 269.2C294.567 265.6 297.033 261.3 298.7 256.3C300.433 251.3 301.3 245.8 301.3 239.8V152.7H320.6V239.8C320.6 248.067 319.267 255.733 316.6 262.8C314 269.867 310.233 276 305.3 281.2C300.433 286.333 294.467 290.367 287.4 293.3C280.333 296.233 272.4 297.7 263.6 297.7C254.8 297.7 246.867 296.233 239.8 293.3C232.733 290.367 226.733 286.333 221.8 281.2C216.867 276 213.067 269.867 210.4 262.8C207.8 255.733 206.5 248.067 206.5 239.8V152.7H225.8V239.7C225.8 245.7 226.633 251.2 228.3 256.2C230.033 261.2 232.5 265.5 235.7 269.1C238.967 272.7 242.933 275.533 247.6 277.6C252.333 279.6 257.667 280.6 263.6 280.6ZM374.77 296H355.37V152.7H374.77V296Z" fill="#F8F8F2"/>
<defs>
<linearGradient id="paint0_linear_2_6" x1="93" y1="0" x2="93" y2="374" gradientUnits="userSpaceOnUse">
<stop offset="0.23262" stop-color="#BD93F9" stop-opacity="0.46"/>
<stop offset="0.820856" stop-color="#8BE9FD"/>
</linearGradient>
</defs>
</svg>
